<?xml version="1.0" encoding="UTF-8"?> <svg xmlns="http://www.w3.org/2000/svg" width="191" height="52.031" viewBox="0 0 191 52.031"> <metadata> <?xpacket begin="﻿" id="W5M0MpCehiHzreSzNTczkc9d"?> <?xpacket end="w"?> </metadata> <defs> <style> .cls-1 { fill-rule: evenodd; } </style> </defs> <path class="cls-1" d="M228.918,25.049a25.21,25.21,0,0,1-2.988-.207,0.575,0.575,0,0,1,.4-0.323,21.565,21.565,0,0,1,11.484-1.227,12.881,12.881,0,0,1,4.2,1.395v0.065c-0.04.123-4,.155-6.116,0.181l-0.991.026Zm29.047,22.064c0-.016,0-0.025,0-0.041l0.015,0.048c-0.45-4.985-2.536-9.376-5.111-13.483a22.94,22.94,0,0,0-7.983-7.555c-0.1-.039-0.348-0.064-0.322.116,0.309,1.175.876,2.234,1.236,3.384a0.461,0.461,0,0,1-.167.543,0.523,0.523,0,0,1-.489-0.091,10.443,10.443,0,0,0-8.923-3.487,1.3,1.3,0,0,0-.966.232,10.04,10.04,0,0,0-.193,2.105c0.051,3.087-.077,6.277-0.064,9.35,0,0.1,0,.143,0,0.258l0.025,2.467,0.232,7.568a2.133,2.133,0,0,1,.013.814,69.986,69.986,0,0,0,.811,8.42,0.414,0.414,0,0,1-.5.465,27.52,27.52,0,0,1-3.3.052,0.464,0.464,0,0,1-.251-0.517c0.309-3.59.786-7.181,0.889-10.874l0.116-5.7c0.051-1.64.077-3.229,0.064-4.869V29.518c-0.013-.865.039-1.744-0.039-2.609a0.746,0.746,0,0,0-.721-0.378l-2.871.013a10.057,10.057,0,0,0-6.515,3.7,0.376,0.376,0,0,1-.489-0.09,1.067,1.067,0,0,1,.026-0.865c0.45-1.046.952-2.079,1.339-3.164V25.863c-0.039-.116-0.168-0.052-0.258-0.065a26.386,26.386,0,0,0-4.725,3.4c-4.056,3.668-6.245,8.291-7.764,13.083a15.876,15.876,0,0,0-1.047,6.064c0.06,0.079.263-.119,0.36-0.369a14.643,14.643,0,0,1,1.936-2.764c2.163-2.092,4.906-2.738,7.764-3.087a0.556,0.556,0,0,0,.425-0.22,11.125,11.125,0,0,0-1.713-.852,5.3,5.3,0,0,1-1.673-1.537c-1.043-1.343-.708-3.332-0.181-4.817a5.735,5.735,0,0,1,4.558-3.177,52.675,52.675,0,0,1,8.2-.116,0.628,0.628,0,0,1,.347.439c-0.115,3.332-.476,6.393-0.669,9.7-0.039,1.033-.206,1.976-0.206,2.97A58.148,58.148,0,0,0,229.033,53c0.464,2.66.528,5.527,2.627,7.529a3.817,3.817,0,0,0,4.094.542c2.4-1.421,2.7-4.21,3.129-6.612a51.119,51.119,0,0,0,.026-10.59c-0.283-3.9-.644-7.826-0.863-11.7a1.164,1.164,0,0,1,.026-0.439,0.664,0.664,0,0,1,.541-0.413l3.952-.026c2.205,0.009,4.314-.491,6.078.62a5.985,5.985,0,0,1,3.154,5.812c-0.232,1.911-2.176,3.241-3.824,3.771a0.648,0.648,0,0,0-.438.3c1.095,0.194,2.344.284,3.477,0.542a9.951,9.951,0,0,1,6.785,5.579,0.167,0.167,0,0,0,.167-0.052,4.288,4.288,0,0,0,0-.72A0.023,0.023,0,0,1,257.965,47.113Zm0,0c0,0.009,0,.015,0,0.023s0,0,.011-0.016S257.967,47.1,257.965,47.113Zm-1.507,9.422c-2.021,2.531-5.2,3.179-8.021,3.526a30.977,30.977,0,0,1-6.914.142,0.547,0.547,0,0,1-.271-0.529,2.586,2.586,0,0,1,.528-1.421c0.633-.188,1.313.374,2.021,0.465,3.387,0.646,7.339.426,9.824-2.234a8.916,8.916,0,0,0,1.49-7.662,7.035,7.035,0,0,0-.235-0.7,9.3,9.3,0,0,0-2.3-3.057c-3-2.182-7.146-2.415-10.726-1.317a0.537,0.537,0,0,1-.4-0.233,1.36,1.36,0,0,1,.4-1.563c1.069-.323,2.215-0.465,3.258-0.865l0.219-.065c1.339-.53,2.845-1.188,3.54-2.673a4.351,4.351,0,0,0-.579-4.481,5.007,5.007,0,0,0-3.154-1.472,38.355,38.355,0,0,0-4.4.09,0.544,0.544,0,0,0-.348.542l-0.025,9.531c-0.065,3.552.038,7.206,0,10.835a14.652,14.652,0,0,1-1.2,6.664,5.611,5.611,0,0,1-2.832,2.441c0.055,0.6.379,0.228,0.785,0.865,1.919,2.376.077,5.179-.965,7.361a10.474,10.474,0,0,0-1.185,3.836,0.946,0.946,0,0,0,.875.284,23.839,23.839,0,0,0,15.528-7.3,21.177,21.177,0,0,0,3.386-4.236,33.688,33.688,0,0,0,2.112-4.481,15.137,15.137,0,0,0,.953-4.378l-0.036-.032C257.282,54.933,257.127,55.915,256.458,56.535Zm-25.4,6.93c0.4-.639.73-0.269,0.783-0.868A5.612,5.612,0,0,1,229,60.166a14.646,14.646,0,0,1-1.221-6.66c-0.052-3.629.038-7.284-.039-10.835l-0.06-9.531a0.543,0.543,0,0,0-.35-0.541,38.388,38.388,0,0,0-4.4-.075,5,5,0,0,0-3.149,1.484,4.351,4.351,0,0,0-.564,4.483c0.7,1.483,2.209,2.136,3.55,2.66l0.22,0.064c1.044,0.4,2.191.535,3.26,0.853a1.359,1.359,0,0,1,.405,1.561,0.537,0.537,0,0,1-.4.234c-3.584-1.085-7.729-.837-10.721,1.356a9.281,9.281,0,0,0-2.286,3.066,5.308,5.308,0,0,0-.2.689,8.806,8.806,0,0,0,1.482,7.666c2.495,2.651,6.448,2.857,9.832,2.2,0.708-.093,1.408-0.636,2.02-0.472a2.4,2.4,0,0,1,.533,1.419,0.485,0.485,0,0,1-.269.53,37.956,37.956,0,0,1-6.914-.117c-2.966-.416-6-0.973-8.034-3.5-0.672-.617-0.83-1.6-1.337-2.107l-0.035.032A15.12,15.12,0,0,0,211.3,59a41.757,41.757,0,0,0,2.128,4.474,29.107,29.107,0,0,0,3.4,4.224,23.84,23.84,0,0,0,15.554,7.241,0.948,0.948,0,0,0,.875-0.287,10.481,10.481,0,0,0-1.2-3.831C231.005,68.644,229.153,65.848,231.063,63.465Zm50.825-16.654a3.81,3.81,0,0,0-.683-2.305,3.712,3.712,0,0,0-1.889-1.337,3.514,3.514,0,0,0,1.376-1.326,3.726,3.726,0,0,0,.493-1.916,3.314,3.314,0,0,0-1.377-2.8A6.493,6.493,0,0,0,275.86,36.1h-6.872V50.832h7.274a7.083,7.083,0,0,0,4.189-1.042A3.458,3.458,0,0,0,281.888,46.811Zm-9.665-8.147h3.235a3.207,3.207,0,0,1,1.828.432,1.469,1.469,0,0,1,.623,1.295,1.5,1.5,0,0,1-.623,1.305,3.145,3.145,0,0,1-1.828.442h-3.235V38.664Zm5.737,9.158a3.475,3.475,0,0,1-1.939.442h-3.8V44.622h3.8q2.592,0,2.592,1.832A1.537,1.537,0,0,1,277.96,47.821Zm17.37-4.652a3.517,3.517,0,0,0,1.377-1.326,3.726,3.726,0,0,0,.492-1.916,3.316,3.316,0,0,0-1.376-2.8,6.5,6.5,0,0,0-3.949-1.032H285V50.832h7.274a7.086,7.086,0,0,0,4.19-1.042,3.459,3.459,0,0,0,1.436-2.979,3.81,3.81,0,0,0-.683-2.305A3.708,3.708,0,0,0,295.33,43.169Zm-7.093-4.505h3.235a3.211,3.211,0,0,1,1.829.432,1.472,1.472,0,0,1,.623,1.295A1.5,1.5,0,0,1,293.3,41.7a3.148,3.148,0,0,1-1.829.442h-3.235V38.664Zm5.737,9.158a3.473,3.473,0,0,1-1.939.442h-3.8V44.622h3.8q2.592,0,2.592,1.832A1.537,1.537,0,0,1,293.974,47.821Zm17.511-8.947h-4.5V50.832h-3.255V38.874h-4.5V36.1h12.257v2.779Zm22.445,4.59a7.705,7.705,0,0,0-.965-3.842,7,7,0,0,0-2.642-2.684,7.814,7.814,0,0,0-7.555.011,6.986,6.986,0,0,0-2.653,2.684,8.171,8.171,0,0,0,0,7.663,6.986,6.986,0,0,0,2.653,2.684,7.814,7.814,0,0,0,7.555.011,7,7,0,0,0,2.642-2.684A7.7,7.7,0,0,0,333.93,43.464Zm-2.251,3.126a5.583,5.583,0,0,1-2.11,2.189,6.167,6.167,0,0,1-6.038,0,5.639,5.639,0,0,1-2.13-2.189,6.708,6.708,0,0,1,0-6.253,5.642,5.642,0,0,1,2.13-2.19,6.168,6.168,0,0,1,6.038,0,5.585,5.585,0,0,1,2.11,2.19A6.778,6.778,0,0,1,331.679,46.59Zm17.984,4.242h-1.226L339.4,38.874V50.832h-1.487V36.1h1.226L348.2,48.053V36.1h1.467V50.832Zm14.587,0h-9.363V36.1h1.487V49.485h7.876v1.347ZM367.365,36.1h1.487V50.832h-1.487V36.1Zm17,0h1.467V50.832h-1.226l-9.042-11.958V50.832h-1.487V36.1H375.3l9.062,11.958V36.1ZM401,49.485v1.347h-9.946V36.1H400.7v1.347h-8.158v5.242h7.273v1.326h-7.273v5.474H401ZM271.318,58.85l2.216,3.042h-0.685l-1.991-2.712h-1.29v2.712h-0.58V55.977h0.58V58.63h1.29l1.911-2.653h0.645Zm10.971-.237h-3.53V55.977h-0.6v5.915h0.6V59.162h3.53v2.729h0.589V55.977h-0.589v2.636Zm6.788,2.264v-4.9h-0.589v5.915h0.541L292.64,57v4.892h0.589V55.977h-0.541Zm16.622-4.9h-0.645l-1.628,2.653h-1.169V55.977h-0.58V58.63h-1.185l-1.621-2.653h-0.644l1.789,2.864-1.935,3.05h0.694l1.725-2.712h1.177v2.712h0.58V59.179h1.169l1.725,2.712h0.694l-1.935-3.05Zm8.933,2.636H311.1V55.977h-0.6v5.915h0.6V59.162h3.531v2.729h0.588V55.977h-0.588v2.636Zm10.088-.051a1.764,1.764,0,0,1,.528,1.386,1.828,1.828,0,0,1-.56,1.449,2.368,2.368,0,0,1-1.616.494h-2.241V55.977h0.588v2.112h1.774A2.215,2.215,0,0,1,324.72,58.562Zm-0.068,1.394q0-1.36-1.6-1.36h-1.637v2.8h1.637a1.733,1.733,0,0,0,1.189-.363A1.365,1.365,0,0,0,324.652,59.957Zm1.572,1.935h0.588V55.977h-0.588v5.915Zm6.787-1.014v-4.9h-0.588v5.915h0.54L336.575,57v4.892h0.588V55.977h-0.54Zm0.452-6.422a1,1,0,0,0,.359.8,1.725,1.725,0,0,0,1.906,0,1,1,0,0,0,.363-0.8h-0.444a0.673,0.673,0,0,1-.245.532,1.109,1.109,0,0,1-1.254,0,0.68,0.68,0,0,1-.242-0.532h-0.443Zm15.131,7.436h0.588V56.518h3.572v5.374h0.588V55.977h-4.748v5.915ZM364,57.392a3.266,3.266,0,0,1,0,3.084,2.807,2.807,0,0,1-1.06,1.077,3.135,3.135,0,0,1-3.031,0,2.8,2.8,0,0,1-1.064-1.077,3.279,3.279,0,0,1,0-3.076,2.8,2.8,0,0,1,1.064-1.077,3.134,3.134,0,0,1,3.031,0A2.807,2.807,0,0,1,364,57.392Zm-0.209,1.542a2.58,2.58,0,0,0-.307-1.255,2.238,2.238,0,0,0-.846-0.879,2.344,2.344,0,0,0-1.209-.317,2.37,2.37,0,0,0-1.214.317,2.265,2.265,0,0,0-.854.879,2.694,2.694,0,0,0,0,2.509,2.267,2.267,0,0,0,.854.879,2.371,2.371,0,0,0,1.214.317,2.345,2.345,0,0,0,1.209-.317,2.24,2.24,0,0,0,.846-0.879A2.581,2.581,0,0,0,363.79,58.934Zm9.536-2.417a2.105,2.105,0,0,1,0,2.97,2.482,2.482,0,0,1-1.693.537h-1.515v1.867h-0.6V55.977h2.112A2.471,2.471,0,0,1,373.326,56.518ZM373.342,58a1.379,1.379,0,0,0-.443-1.1,1.9,1.9,0,0,0-1.282-.384h-1.5v2.957h1.5a1.9,1.9,0,0,0,1.282-.384A1.358,1.358,0,0,0,373.342,58Zm4.482-1.487h1.984v5.374H380.4V56.518h1.983V55.977h-4.555v0.541Zm11.367-.541,2.58,5.915h-0.629l-0.677-1.58h-3.144l-0.677,1.58h-0.621l2.58-5.915h0.588Zm1.056,3.828-1.354-3.177L387.539,59.8h2.708Zm6.844-1.293a12.346,12.346,0,0,1-.153,1.643,2.222,2.222,0,0,1-.334.917,0.689,0.689,0,0,1-.577.3,1.115,1.115,0,0,1-.266-0.034l-0.048.558a1.843,1.843,0,0,0,.451.059,1,1,0,0,0,.814-0.368,2.506,2.506,0,0,0,.456-1.115,12.677,12.677,0,0,0,.189-1.973l0.065-1.977h2.725v5.374H401V55.977h-3.829Z" transform="translate(-210 -22.969)"></path> </svg> 