<svg xmlns="http://www.w3.org/2000/svg" width="191" height="52.031" viewBox="0 0 191 52.031">
  <metadata><?xpacket begin="﻿" id="W5M0MpCehiHzreSzNTczkc9d"?>
<x:xmpmeta xmlns:x="adobe:ns:meta/" x:xmptk="Adobe XMP Core 5.6-c138 79.159824, 2016/09/14-01:09:01        ">
   <rdf:RDF xmlns:rdf="http://www.w3.org/1999/02/22-rdf-syntax-ns#">
      <rdf:Description rdf:about=""/>
   </rdf:RDF>
</x:xmpmeta>
                                                                                                    
                                                                                                    
                                                                                                    
                                                                                                    
                                                                                                    
                                                                                                    
                                                                                                    
                                                                                                    
                                                                                                    
                                                                                                    
                                                                                                    
                                                                                                    
                                                                                                    
                                                                                                    
                                                                                                    
                                                                                                    
                                                                                                    
                                                                                                    
                                                                                                    
                                                                                                    
                           
<?xpacket end="w"?></metadata>
<defs>
    <style>
      .cls-1 {
        fill: #fff;
        fill-rule: evenodd;
      }
    </style>
  </defs>
  <path class="cls-1" d="M228.917,25.049a25.186,25.186,0,0,1-2.987-.207,0.575,0.575,0,0,1,.4-0.323,21.564,21.564,0,0,1,11.484-1.227,12.883,12.883,0,0,1,4.2,1.395v0.065c-0.04.123-4,.155-6.116,0.181l-0.991.026Zm29.048,22.064c0-.016,0-0.025,0-0.041l0.015,0.048c-0.45-4.985-2.536-9.376-5.111-13.483a22.939,22.939,0,0,0-7.983-7.555c-0.1-.039-0.348-0.065-0.322.116,0.309,1.175.876,2.234,1.236,3.384a0.461,0.461,0,0,1-.167.542,0.523,0.523,0,0,1-.489-0.091,10.444,10.444,0,0,0-8.923-3.487,1.3,1.3,0,0,0-.966.233,10.038,10.038,0,0,0-.193,2.1c0.051,3.087-.077,6.277-0.064,9.35,0,0.1,0,.143,0,0.258l0.025,2.467,0.232,7.568a2.132,2.132,0,0,1,.013.813,69.989,69.989,0,0,0,.811,8.42,0.414,0.414,0,0,1-.5.465,27.479,27.479,0,0,1-3.3.052,0.464,0.464,0,0,1-.251-0.517c0.309-3.59.786-7.181,0.889-10.874l0.116-5.7c0.051-1.64.077-3.229,0.064-4.869V29.518c-0.013-.865.039-1.743-0.039-2.609a0.745,0.745,0,0,0-.721-0.378l-2.871.013a10.056,10.056,0,0,0-6.515,3.7,0.376,0.376,0,0,1-.489-0.091,1.067,1.067,0,0,1,.026-0.865c0.45-1.046.952-2.079,1.339-3.164V25.863c-0.039-.116-0.168-0.052-0.258-0.064a26.386,26.386,0,0,0-4.725,3.4c-4.056,3.668-6.245,8.291-7.764,13.083a15.875,15.875,0,0,0-1.047,6.064c0.06,0.079.263-.119,0.36-0.369a14.64,14.64,0,0,1,1.936-2.764c2.163-2.092,4.906-2.738,7.764-3.087a0.555,0.555,0,0,0,.425-0.22,11.152,11.152,0,0,0-1.713-.852,5.3,5.3,0,0,1-1.673-1.537c-1.043-1.343-.709-3.332-0.181-4.817a5.735,5.735,0,0,1,4.558-3.177,52.663,52.663,0,0,1,8.2-.116,0.628,0.628,0,0,1,.347.439c-0.115,3.332-.476,6.393-0.669,9.7-0.039,1.033-.206,1.976-0.206,2.97A58.008,58.008,0,0,0,229.033,53c0.464,2.66.528,5.527,2.627,7.529a3.817,3.817,0,0,0,4.094.542c2.4-1.421,2.7-4.21,3.129-6.612a51.12,51.12,0,0,0,.026-10.59c-0.283-3.9-.644-7.826-0.863-11.7a1.166,1.166,0,0,1,.026-0.439,0.664,0.664,0,0,1,.541-0.413l3.952-.026c2.205,0.008,4.314-.491,6.078.62a5.986,5.986,0,0,1,3.154,5.812c-0.232,1.911-2.176,3.241-3.824,3.771a0.649,0.649,0,0,0-.438.3c1.095,0.194,2.344.284,3.477,0.542a9.952,9.952,0,0,1,6.785,5.579,0.167,0.167,0,0,0,.167-0.052,4.287,4.287,0,0,0,0-.72A0.023,0.023,0,0,1,257.965,47.113Zm0,0c0,0.008,0,.015,0,0.023s0,0,.011-0.016S257.967,47.1,257.965,47.113Zm-1.507,9.422c-2.021,2.531-5.2,3.179-8.021,3.526a30.989,30.989,0,0,1-6.914.142,0.547,0.547,0,0,1-.271-0.53,2.579,2.579,0,0,1,.528-1.421c0.633-.188,1.313.374,2.021,0.465,3.387,0.646,7.339.426,9.824-2.234a8.919,8.919,0,0,0,1.49-7.662,7.044,7.044,0,0,0-.235-0.7,9.282,9.282,0,0,0-2.3-3.057c-3-2.182-7.146-2.415-10.726-1.317a0.538,0.538,0,0,1-.4-0.233,1.36,1.36,0,0,1,.4-1.563c1.069-.323,2.215-0.465,3.258-0.865l0.219-.065c1.339-.53,2.845-1.188,3.54-2.673a4.351,4.351,0,0,0-.579-4.481,5.007,5.007,0,0,0-3.154-1.472,38.355,38.355,0,0,0-4.4.09,0.544,0.544,0,0,0-.348.542l-0.025,9.531c-0.065,3.551.038,7.206,0,10.835a14.652,14.652,0,0,1-1.2,6.664,5.61,5.61,0,0,1-2.832,2.441c0.055,0.6.379,0.228,0.785,0.865,1.919,2.376.077,5.179-.965,7.361a10.474,10.474,0,0,0-1.185,3.836,0.946,0.946,0,0,0,.875.284,23.84,23.84,0,0,0,15.528-7.3,21.179,21.179,0,0,0,3.386-4.236,33.7,33.7,0,0,0,2.112-4.481,15.138,15.138,0,0,0,.953-4.378l-0.036-.032C257.282,54.933,257.127,55.915,256.458,56.535Zm-25.4,6.93c0.4-.639.73-0.269,0.783-0.868A5.611,5.611,0,0,1,229,60.166a14.647,14.647,0,0,1-1.221-6.66c-0.052-3.629.038-7.284-.039-10.835l-0.06-9.531a0.542,0.542,0,0,0-.35-0.541,38.41,38.41,0,0,0-4.4-.075,5,5,0,0,0-3.149,1.484,4.351,4.351,0,0,0-.564,4.483c0.7,1.483,2.21,2.136,3.55,2.661l0.22,0.064c1.044,0.4,2.19.535,3.26,0.854a1.359,1.359,0,0,1,.405,1.561,0.537,0.537,0,0,1-.4.234c-3.584-1.085-7.729-.837-10.721,1.356a9.281,9.281,0,0,0-2.286,3.065,5.3,5.3,0,0,0-.2.689,8.806,8.806,0,0,0,1.482,7.666c2.495,2.651,6.448,2.856,9.832,2.2,0.708-.093,1.408-0.635,2.02-0.472a2.4,2.4,0,0,1,.533,1.419,0.485,0.485,0,0,1-.269.53,37.956,37.956,0,0,1-6.914-.117c-2.966-.416-6-0.973-8.034-3.5-0.672-.617-0.83-1.6-1.337-2.107l-0.035.032A15.122,15.122,0,0,0,211.3,59a41.773,41.773,0,0,0,2.128,4.474,29.106,29.106,0,0,0,3.4,4.224,23.841,23.841,0,0,0,15.554,7.241,0.948,0.948,0,0,0,.875-0.287,10.481,10.481,0,0,0-1.2-3.832C231.005,68.644,229.153,65.848,231.063,63.465Zm50.825-16.654a3.809,3.809,0,0,0-.683-2.305,3.711,3.711,0,0,0-1.889-1.337,3.514,3.514,0,0,0,1.376-1.326,3.726,3.726,0,0,0,.493-1.916,3.314,3.314,0,0,0-1.377-2.8A6.49,6.49,0,0,0,275.86,36.1h-6.872V50.832h7.274a7.081,7.081,0,0,0,4.189-1.042A3.457,3.457,0,0,0,281.888,46.811Zm-9.665-8.147h3.235a3.207,3.207,0,0,1,1.828.431,1.47,1.47,0,0,1,.623,1.295,1.5,1.5,0,0,1-.623,1.305,3.146,3.146,0,0,1-1.828.442h-3.235V38.664Zm5.737,9.158a3.476,3.476,0,0,1-1.939.442h-3.8V44.622h3.8q2.592,0,2.592,1.832A1.537,1.537,0,0,1,277.96,47.821Zm17.37-4.652a3.517,3.517,0,0,0,1.377-1.326,3.726,3.726,0,0,0,.492-1.916,3.315,3.315,0,0,0-1.376-2.8,6.5,6.5,0,0,0-3.949-1.032H285V50.832h7.274a7.085,7.085,0,0,0,4.19-1.042,3.459,3.459,0,0,0,1.436-2.979,3.809,3.809,0,0,0-.683-2.305A3.711,3.711,0,0,0,295.33,43.169Zm-7.093-4.505h3.235a3.211,3.211,0,0,1,1.829.431,1.472,1.472,0,0,1,.623,1.295A1.5,1.5,0,0,1,293.3,41.7a3.15,3.15,0,0,1-1.829.442h-3.235V38.664Zm5.737,9.158a3.473,3.473,0,0,1-1.939.442h-3.8V44.622h3.8q2.592,0,2.592,1.832A1.537,1.537,0,0,1,293.974,47.821Zm17.511-8.947h-4.5V50.832h-3.255V38.874h-4.5V36.1h12.257v2.779Zm22.445,4.59a7.7,7.7,0,0,0-.965-3.842,7,7,0,0,0-2.642-2.684,7.814,7.814,0,0,0-7.555.011,6.976,6.976,0,0,0-2.652,2.684,8.164,8.164,0,0,0,0,7.663,6.977,6.977,0,0,0,2.652,2.684,7.813,7.813,0,0,0,7.555.011,7,7,0,0,0,2.642-2.684A7.7,7.7,0,0,0,333.93,43.464Zm-2.251,3.126a5.583,5.583,0,0,1-2.11,2.19,6.167,6.167,0,0,1-6.038,0,5.639,5.639,0,0,1-2.13-2.19,6.708,6.708,0,0,1,0-6.252,5.643,5.643,0,0,1,2.13-2.19,6.169,6.169,0,0,1,6.038,0,5.586,5.586,0,0,1,2.11,2.19A6.778,6.778,0,0,1,331.679,46.59Zm17.984,4.242h-1.226L339.4,38.874V50.832h-1.487V36.1h1.226L348.2,48.053V36.1h1.467V50.832Zm14.587,0h-9.363V36.1h1.487v13.39h7.876v1.347ZM367.365,36.1h1.487V50.832h-1.487V36.1Zm17,0h1.467V50.832h-1.226l-9.042-11.958V50.832h-1.487V36.1H375.3l9.062,11.958V36.1ZM401,49.485v1.347h-9.946V36.1H400.7v1.347h-8.158v5.242h7.273v1.326h-7.273v5.474H401ZM271.318,58.85l2.216,3.042h-0.685l-1.991-2.712h-1.29v2.712h-0.58V55.977h0.58V58.63h1.29l1.911-2.653h0.645Zm10.971-.236h-3.53V55.977h-0.6v5.915h0.6V59.162h3.53v2.729h0.589V55.977h-0.589v2.636Zm6.788,2.264v-4.9h-0.589v5.915h0.541L292.64,57v4.892h0.589V55.977h-0.541Zm16.622-4.9h-0.644l-1.629,2.653h-1.169V55.977h-0.58V58.63h-1.185l-1.621-2.653h-0.644l1.789,2.864-1.935,3.05h0.694l1.725-2.712h1.177v2.712h0.58V59.179h1.169l1.725,2.712h0.694l-1.935-3.05Zm8.933,2.636H311.1V55.977h-0.6v5.915h0.6V59.162h3.531v2.729h0.588V55.977h-0.588v2.636Zm10.088-.051a1.764,1.764,0,0,1,.528,1.386,1.828,1.828,0,0,1-.56,1.449,2.369,2.369,0,0,1-1.616.495h-2.241V55.977h0.588v2.112h1.774A2.215,2.215,0,0,1,324.72,58.562Zm-0.068,1.394q0-1.36-1.6-1.36h-1.637v2.8h1.637a1.734,1.734,0,0,0,1.189-.363A1.365,1.365,0,0,0,324.652,59.957Zm1.572,1.935h0.588V55.977h-0.588v5.915Zm6.787-1.014v-4.9h-0.588v5.915h0.54L336.575,57v4.892h0.588V55.977h-0.54Zm0.452-6.422a1,1,0,0,0,.359.8,1.724,1.724,0,0,0,1.906,0,1,1,0,0,0,.363-0.8h-0.444a0.673,0.673,0,0,1-.245.532,1.109,1.109,0,0,1-1.254,0,0.68,0.68,0,0,1-.242-0.532h-0.443Zm15.131,7.436h0.588V56.518h3.572v5.374h0.588V55.977h-4.748v5.915ZM364,57.392a3.266,3.266,0,0,1,0,3.084,2.805,2.805,0,0,1-1.06,1.077,3.134,3.134,0,0,1-3.031,0,2.8,2.8,0,0,1-1.064-1.077,3.279,3.279,0,0,1,0-3.076,2.8,2.8,0,0,1,1.064-1.077,3.135,3.135,0,0,1,3.031,0A2.806,2.806,0,0,1,364,57.392Zm-0.209,1.542a2.581,2.581,0,0,0-.307-1.255,2.24,2.24,0,0,0-.846-0.879,2.343,2.343,0,0,0-1.209-.317,2.369,2.369,0,0,0-1.214.317,2.267,2.267,0,0,0-.854.879,2.695,2.695,0,0,0,0,2.51,2.267,2.267,0,0,0,.854.879,2.372,2.372,0,0,0,1.214.317,2.346,2.346,0,0,0,1.209-.317,2.24,2.24,0,0,0,.846-0.879A2.581,2.581,0,0,0,363.79,58.934Zm9.536-2.417a2.105,2.105,0,0,1,0,2.97,2.483,2.483,0,0,1-1.693.537h-1.515v1.867h-0.6V55.977h2.112A2.471,2.471,0,0,1,373.326,56.518ZM373.342,58a1.379,1.379,0,0,0-.443-1.1,1.9,1.9,0,0,0-1.282-.384h-1.5v2.957h1.5a1.9,1.9,0,0,0,1.282-.384A1.358,1.358,0,0,0,373.342,58Zm4.483-1.487h1.983v5.374H380.4V56.518h1.983V55.977h-4.554v0.541Zm11.366-.541,2.58,5.915h-0.629l-0.677-1.58h-3.144l-0.677,1.58h-0.621l2.58-5.915h0.588Zm1.056,3.828-1.354-3.177L387.539,59.8h2.708Zm6.844-1.293a12.35,12.35,0,0,1-.153,1.643,2.222,2.222,0,0,1-.334.917,0.689,0.689,0,0,1-.577.3,1.115,1.115,0,0,1-.266-0.034l-0.048.558a1.853,1.853,0,0,0,.451.059,1,1,0,0,0,.814-0.368,2.506,2.506,0,0,0,.456-1.115,12.677,12.677,0,0,0,.189-1.973l0.065-1.977h2.725v5.374H401V55.977h-3.829Z" transform="translate(-210 -22.969)"/>
</svg>
